<svg xmlns="http://www.w3.org/2000/svg" viewBox="0 0 236.28 80" fill="#a7adb3">
    <path
        d="M43.281 64.263a43.042 43.042 0 0 1-7.33-24.092 43.06 43.06 0 0 1 9.022-26.439c-7.026 4.146-15.094 6.51-23.667 6.51-7.63 0-14.851-1.874-21.302-5.208a43.035 43.035 0 0 1 8.053 25.137c0 8.467-2.433 16.36-6.639 23.03a47.825 47.825 0 0 1 3.193-1.374 46.366 46.366 0 0 1 8.057-2.31 46.136 46.136 0 0 1 8.638-.811c7.894 0 15.358 2.005 21.975 5.557Z" />
    <path fill-rule="evenodd"
        d="M111.786 10.348c8.147 6.396 18.18 10.168 29.03 10.168 10.851 0 20.885-3.772 29.032-10.168a39.928 39.928 0 0 1 2.537-2.129c.196-.175.384-.345.576-.526h.128A39.568 39.568 0 0 1 196.6 0c21.956 0 39.754 17.796 39.754 39.749 0 21.953-17.798 39.749-39.754 39.749a39.568 39.568 0 0 1-23.511-7.694h-.128c-.192-.18-.38-.35-.576-.525a39.885 39.885 0 0 1-2.537-2.13c-8.147-6.395-18.181-10.167-29.031-10.167-10.85 0-20.884 3.772-29.031 10.168a39.611 39.611 0 0 1-2.538 2.129c-.195.175-.383.345-.576.526h-.127a39.567 39.567 0 0 1-23.511 7.693c-21.956 0-39.754-17.796-39.754-39.75C45.28 17.797 63.078 0 85.034 0a39.567 39.567 0 0 1 23.51 7.693h.128c.193.18.381.351.576.526a39.696 39.696 0 0 1 2.538 2.129ZM85.034 52.57c7.083 0 12.823-5.74 12.823-12.822 0-7.082-5.74-12.822-12.823-12.822-1.676 0-3.277.32-4.744.906a12.86 12.86 0 0 0-6.344 5.47 12.778 12.778 0 0 0-1.736 6.446c0 7.082 5.74 12.822 12.824 12.822Zm111.566 0c7.083 0 12.824-5.74 12.824-12.822 0-7.082-5.741-12.822-12.824-12.822s-12.824 5.74-12.824 12.822c0 7.082 5.741 12.822 12.824 12.822Z"
        clip-rule="evenodd" />
</svg>
